<svg width="24" height="24" viewBox="0 0 24 24" fill="none" xmlns="http://www.w3.org/2000/svg">
<path d="M11.75 23.25C9.47552 23.25 7.25211 22.5755 5.36095 21.3119C3.46978 20.0483 1.9958 18.2522 1.12539 16.1509C0.254983 14.0495 0.0272444 11.7372 0.470974 9.50646C0.914704 7.27568 2.00997 5.22658 3.61828 3.61828C5.22658 2.00997 7.27568 0.914704 9.50646 0.470974C11.7372 0.0272444 14.0495 0.254983 16.1509 1.12539C18.2522 1.9958 20.0483 3.46978 21.3119 5.36095C22.5755 7.25211 23.25 9.47552 23.25 11.75C23.25 14.8 22.0384 17.7251 19.8817 19.8817C17.7251 22.0384 14.8 23.25 11.75 23.25ZM11.75 1.78334C9.77878 1.78334 7.85183 2.36787 6.21282 3.46302C4.57381 4.55817 3.29636 6.11475 2.54201 7.93592C1.78765 9.75709 1.59028 11.7611 1.97484 13.6944C2.35941 15.6277 3.30864 17.4036 4.70251 18.7975C6.09637 20.1914 7.87226 21.1406 9.8056 21.5252C11.7389 21.9097 13.7429 21.7124 15.5641 20.958C17.3852 20.2036 18.9418 18.9262 20.037 17.2872C21.1321 15.6482 21.7167 13.7212 21.7167 11.75C21.7167 9.10668 20.6666 6.57162 18.7975 4.70251C16.9284 2.83339 14.3933 1.78334 11.75 1.78334V1.78334Z" fill="black"/>
<path d="M15.0007 16.0894L11.2057 12.2944C11.1347 12.2227 11.0785 12.1378 11.0403 12.0444C11.0022 11.951 10.9828 11.8509 10.9834 11.75V5.6167H12.5167V11.4357L16.0894 15.0007L15.0007 16.0894Z" fill="black"/>
</svg>
