<svg width="23" height="23" viewBox="0 0 23 23" fill="none" xmlns="http://www.w3.org/2000/svg">
<path d="M4.63194 9.96028C6.47194 13.5764 9.43 16.5344 13.0525 18.3744L15.8636 15.5569C16.215 15.2056 16.7197 15.1033 17.1606 15.2439C18.5917 15.7167 20.1314 15.9722 21.7222 15.9722C22.4314 15.9722 23 16.5408 23 17.25V21.7222C23 22.4314 22.4314 23 21.7222 23C9.72389 23 0 13.2761 0 1.27778C0 0.568611 0.575 0 1.27778 0H5.75C6.45917 0 7.02778 0.568611 7.02778 1.27778C7.02778 2.86861 7.28333 4.40833 7.75611 5.83944C7.89667 6.28028 7.79444 6.785 7.44306 7.13639L4.63194 9.96028V9.96028Z" fill="black"/>
</svg>
