<svg width="35" height="35" viewBox="0 0 35 35" fill="none" xmlns="http://www.w3.org/2000/svg">
<g clip-path="url(#clip0_48_8)">
<path d="M17.5 35C7.8365 35 0 27.1635 0 17.5C0 7.8365 7.8365 0 17.5 0C27.1635 0 35 7.8365 35 17.5C35 27.1635 27.1635 35 17.5 35Z" fill="url(#paint0_linear_48_8)"/>
<path d="M17.4998 7.70719C20.6883 7.70719 21.0663 7.71769 22.3263 7.77719C23.4918 7.82969 24.1253 8.02569 24.5453 8.19019C25.1018 8.40719 25.5008 8.66619 25.9173 9.08269C26.3338 9.49919 26.5928 9.89819 26.8098 10.4547C26.9743 10.8747 27.1668 11.5082 27.2228 12.6737C27.2788 13.9337 27.2928 14.3117 27.2928 17.5002C27.2928 20.6887 27.2823 21.0667 27.2228 22.3267C27.1703 23.4922 26.9743 24.1257 26.8098 24.5457C26.5928 25.1022 26.3338 25.5012 25.9173 25.9177C25.5008 26.3342 25.1018 26.5932 24.5453 26.8102C24.1253 26.9747 23.4918 27.1672 22.3263 27.2232C21.0663 27.2792 20.6883 27.2932 17.4998 27.2932C14.3113 27.2932 13.9333 27.2827 12.6733 27.2232C11.5078 27.1707 10.8743 26.9747 10.4543 26.8102C9.89778 26.5932 9.49878 26.3342 9.08228 25.9177C8.66578 25.5012 8.40678 25.1022 8.18978 24.5457C8.02528 24.1257 7.83278 23.4922 7.77678 22.3267C7.72078 21.0667 7.70678 20.6887 7.70678 17.5002C7.70678 14.3117 7.71728 13.9337 7.77678 12.6737C7.82928 11.5082 8.02528 10.8747 8.18978 10.4547C8.40678 9.89819 8.66578 9.49919 9.08228 9.08269C9.49878 8.66619 9.89778 8.40719 10.4543 8.19019C10.8743 8.02569 11.5078 7.83319 12.6733 7.77719C13.9333 7.71769 14.3113 7.70719 17.4998 7.70719ZM17.4998 5.55469C14.2553 5.55469 13.8493 5.56869 12.5753 5.62819C11.3048 5.68769 10.4368 5.88719 9.67378 6.18469C8.88978 6.48569 8.22128 6.89519 7.55978 7.56019C6.89478 8.22519 6.48878 8.89019 6.18078 9.67769C5.88678 10.4372 5.68378 11.3052 5.62428 12.5792C5.56478 13.8532 5.55078 14.2592 5.55078 17.5037C5.55078 20.7482 5.56478 21.1542 5.62428 22.4282C5.68378 23.6987 5.88328 24.5667 6.18078 25.3297C6.48528 26.1102 6.89478 26.7787 7.55978 27.4402C8.22478 28.1052 8.88978 28.5112 9.67728 28.8192C10.4368 29.1132 11.3048 29.3162 12.5788 29.3757C13.8528 29.4352 14.2588 29.4492 17.5033 29.4492C20.7478 29.4492 21.1538 29.4352 22.4278 29.3757C23.6983 29.3162 24.5663 29.1167 25.3293 28.8192C26.1098 28.5147 26.7783 28.1052 27.4398 27.4402C28.1048 26.7752 28.5108 26.1102 28.8188 25.3227C29.1128 24.5632 29.3158 23.6952 29.3753 22.4212C29.4348 21.1472 29.4488 20.7412 29.4488 17.4967C29.4488 14.2522 29.4348 13.8462 29.3753 12.5722C29.3158 11.3017 29.1163 10.4337 28.8188 9.67069C28.5143 8.89019 28.1048 8.22169 27.4398 7.56019C26.7748 6.89519 26.1098 6.48919 25.3223 6.18119C24.5628 5.88719 23.6948 5.68419 22.4208 5.62469C21.1503 5.56869 20.7443 5.55469 17.4998 5.55469Z" fill="white"/>
<path d="M17.4998 11.3647C14.1118 11.3647 11.3643 14.1122 11.3643 17.5002C11.3643 20.8882 14.1118 23.6357 17.4998 23.6357C20.8878 23.6357 23.6353 20.8882 23.6353 17.5002C23.6353 14.1122 20.8878 11.3647 17.4998 11.3647ZM17.4998 21.4832C15.3018 21.4832 13.5168 19.7017 13.5168 17.5002C13.5168 15.2987 15.3018 13.5172 17.4998 13.5172C19.6978 13.5172 21.4828 15.2987 21.4828 17.5002C21.4828 19.7017 19.6978 21.4832 17.4998 21.4832Z" fill="white"/>
<path d="M23.8769 12.558C24.6694 12.558 25.3119 11.9155 25.3119 11.123C25.3119 10.3305 24.6694 9.68799 23.8769 9.68799C23.0844 9.68799 22.4419 10.3305 22.4419 11.123C22.4419 11.9155 23.0844 12.558 23.8769 12.558Z" fill="white"/>
</g>
<defs>
<linearGradient id="paint0_linear_48_8" x1="5.12563" y1="29.8744" x2="29.8744" y2="5.12563" gradientUnits="userSpaceOnUse">
<stop stop-color="#FFD521"/>
<stop offset="0.0551048" stop-color="#FFD020"/>
<stop offset="0.1241" stop-color="#FEC01E"/>
<stop offset="0.2004" stop-color="#FCA71B"/>
<stop offset="0.2821" stop-color="#FA8316"/>
<stop offset="0.3681" stop-color="#F85510"/>
<stop offset="0.4563" stop-color="#F51E09"/>
<stop offset="0.5" stop-color="#F30005"/>
<stop offset="0.5035" stop-color="#F20007"/>
<stop offset="0.5966" stop-color="#E1003B"/>
<stop offset="0.6879" stop-color="#D30067"/>
<stop offset="0.7757" stop-color="#C70088"/>
<stop offset="0.8589" stop-color="#BF00A0"/>
<stop offset="0.9357" stop-color="#BB00AF"/>
<stop offset="1" stop-color="#B900B4"/>
</linearGradient>
<clipPath id="clip0_48_8">
<rect width="35" height="35" fill="white"/>
</clipPath>
</defs>
</svg>
