<svg width="24" height="24" viewBox="0 0 24 24" fill="none" xmlns="http://www.w3.org/2000/svg">
<path d="M12.125 23.625C18.4685 23.625 23.625 18.4685 23.625 12.125C23.625 5.78145 18.4685 0.625 12.125 0.625C5.78145 0.625 0.625 5.78145 0.625 12.125C0.625 18.4685 5.78145 23.625 12.125 23.625ZM3.22177 16.7065L7.89597 16.6694C8.41532 18.5427 9.2871 20.3605 10.4742 21.9927C7.30242 21.4734 4.65 19.4516 3.22177 16.7065ZM9.08306 8.97177H14.9073C15.3339 11.0121 15.3339 13.1081 14.9444 15.1484L9.08306 15.1855C8.65645 13.1266 8.65645 11.0121 9.08306 8.97177ZM11.9952 21.5661C10.8266 20.0637 9.97339 18.4129 9.45403 16.6694L14.5548 16.6323C14.0169 18.3758 13.1637 20.0452 11.9952 21.5661ZM13.479 22.0484C14.7032 20.379 15.575 18.5427 16.0944 16.6137L21.0839 16.5766C19.6371 19.4887 16.8177 21.5847 13.479 22.0484ZM22.1411 12.125C22.1411 13.1637 21.9742 14.1653 21.696 15.0927L16.4468 15.1298C16.8177 13.0895 16.7992 11.0121 16.4097 8.97177H21.6218C21.9556 9.95484 22.1411 11.0306 22.1411 12.125ZM20.9911 7.4879H16.0573C15.5194 5.63306 14.6661 3.83387 13.479 2.20161C16.7621 2.64677 19.5258 4.66855 20.9911 7.4879ZM14.5177 7.4879H9.47258C10.0105 5.78145 10.8452 4.16774 11.9952 2.68387C13.1452 4.16774 13.9798 5.78145 14.5177 7.4879ZM10.4742 2.25726C9.30564 3.87097 8.45242 5.63306 7.93306 7.4879H3.25887C4.6871 4.76129 7.32097 2.77661 10.4742 2.25726ZM7.58065 8.97177C7.19113 11.0306 7.19113 13.1266 7.5621 15.1855L2.60968 15.2226C2.27581 14.2395 2.10887 13.2008 2.10887 12.125C2.10887 11.0306 2.29435 9.95484 2.62823 8.97177H7.58065Z" fill="black"/>
</svg>
