<svg width="35" height="35" viewBox="0 0 35 35" fill="none" xmlns="http://www.w3.org/2000/svg">
<g clip-path="url(#clip0_48_4)">
<path d="M17.5 35C7.8365 35 0 27.1635 0 17.5C0 7.8365 7.8365 0 17.5 0C27.1635 0 35 7.8365 35 17.5C35 27.1635 27.1635 35 17.5 35Z" fill="#FF0000"/>
<path d="M28.6369 11.8686C28.3709 10.8606 27.5834 10.0696 26.5824 9.80006C24.7694 9.31006 17.5034 9.31006 17.5034 9.31006C17.5034 9.31006 10.2339 9.31006 8.42438 9.80006C7.42338 10.0696 6.63588 10.8606 6.36988 11.8686C5.87988 13.6921 5.87988 17.5001 5.87988 17.5001C5.87988 17.5001 5.87988 21.3081 6.36638 23.1316C6.63238 24.1396 7.41988 24.9306 8.42088 25.2001C10.2339 25.6901 17.4999 25.6901 17.4999 25.6901C17.4999 25.6901 24.7694 25.6901 26.5789 25.2001C27.5799 24.9306 28.3674 24.1396 28.6334 23.1316C29.1199 21.3081 29.1199 17.5001 29.1199 17.5001C29.1199 17.5001 29.1199 13.6921 28.6369 11.8686ZM15.1234 20.9546V14.0456L21.1959 17.5001L15.1234 20.9546Z" fill="white"/>
</g>
<defs>
<clipPath id="clip0_48_4">
<rect width="35" height="35" fill="white"/>
</clipPath>
</defs>
</svg>
